<svg width="38" height="35" viewBox="0 0 38 35" fill="none" xmlns="http://www.w3.org/2000/svg">
<path fill-rule="evenodd" clip-rule="evenodd" d="M24.256 13.8L17.7328 2.4144C17.3126 1.68081 16.7062 1.0712 15.9748 0.647238C15.2434 0.223275 14.413 4.56672e-07 13.5676 0L12.2248 0C12.1235 0.000130224 12.0236 0.0223394 11.9318 0.0650791C11.84 0.107819 11.7587 0.17006 11.6935 0.247463C11.6282 0.324866 11.5807 0.415567 11.5541 0.513242C11.5275 0.610916 11.5226 0.713213 11.5396 0.813L13.768 13.8H6.91357L4.20277 10.005C3.98078 9.69422 3.68782 9.44091 3.34825 9.26611C3.00868 9.09132 2.63229 9.00009 2.25037 9H0.485168C0.412912 9.00021 0.341612 9.01653 0.276459 9.04778C0.211306 9.07902 0.153939 9.1244 0.108535 9.18061C0.0631303 9.23682 0.0308308 9.30244 0.0139875 9.37271C-0.00285569 9.44298 -0.00381863 9.51611 0.0111683 9.5868L1.67437 17.3622C1.67637 17.3698 1.67997 17.3764 1.68517 17.382V17.418C1.68035 17.4239 1.67668 17.4306 1.67437 17.4378L0.010568 25.2132C-0.00443952 25.284 -0.0034516 25.3572 0.0134588 25.4276C0.0303692 25.4979 0.0627758 25.5636 0.108313 25.6199C0.153851 25.6761 0.211369 25.7214 0.276671 25.7526C0.341973 25.7838 0.413411 25.8 0.485769 25.8H2.25097C2.63289 25.7999 3.00928 25.7087 3.34885 25.5339C3.68842 25.3591 3.98138 25.1058 4.20337 24.795L6.91357 21H13.768L11.5396 33.987C11.5226 34.0868 11.5275 34.1891 11.5541 34.2868C11.5807 34.3844 11.6282 34.4751 11.6935 34.5525C11.7587 34.6299 11.84 34.6922 11.9318 34.7349C12.0236 34.7777 12.1235 34.7999 12.2248 34.8H13.5676C14.4129 34.8001 15.2433 34.5769 15.9747 34.153C16.706 33.7292 17.3125 33.1197 17.7328 32.3862L24.256 21H30.8314C32.3374 21 33.8254 20.6784 35.197 20.0562L35.446 19.9434C35.9346 19.7217 36.349 19.3639 36.6397 18.9128C36.9303 18.4618 37.0849 17.9366 37.0849 17.4C37.0849 16.8634 36.9303 16.3382 36.6397 15.8871C36.349 15.4361 35.9346 15.0783 35.446 14.8566L35.197 14.7438C33.8257 14.1215 32.3372 13.7997 30.8314 13.8H24.256Z" fill="white"/>
</svg>
